# xmcd CD database file
#
# Track frame offsets:
#	150
#	24368
#	44250
#	69522
#	87649
#	111657
#	135572
#	154429
#	172646
#	198570
#	222505
#	255252
#	275988
#
# Disc length: 4211 seconds
#
# Revision: 0
# Processed by: cddbd v1.5.2PL0 Copyright (c) Steve Scherf et al.
# Submitted via: CD2WAV32(JP) R3.22
#
DISCID=c210710d
DTITLE=朴　保 - 架橋～未来へ
DYEAR=2009
DGENRE=Blues
TTITLE0=橋
TTITLE1=山水人
TTITLE2=桜散頃
TTITLE3=砂漠に舞うのは
TTITLE4=緑やさしく
TTITLE5=雷雨
TTITLE6=リムジン河
TTITLE7=根(ハン)
TTITLE8=希望ヶ丘
TTITLE9=ゴール無き人生
TTITLE10=Bob Marley Calling・聖霊達に捧げる歌
TTITLE11=安ビジョンス君へ
TTITLE12=未来へ
EXTD=
EXTT0=PAK-POE BAND
EXTT1=PAK-POE BAND
EXTT2=PAK-POE BAND
EXTT3=PAK-POE BAND
EXTT4=PAK-POE BAND
EXTT5=PAK-POE BAND
EXTT6=PAK-POE BAND
EXTT7=PAK-POE BAND
EXTT8=PAK-POE BAND
EXTT9=PAK-POE BAND
EXTT10=PAK-POE BAND
EXTT11=PAK-POE BAND
EXTT12=PAK-POE BAND
PLAYORDER=
